<svg id="Layer_1" data-name="Layer 1" xmlns="http://www.w3.org/2000/svg" viewBox="0 0 981.07 936"><defs><style>.cls-1{fill:#fff;}</style></defs><path class="cls-1" d="M137-46C177.33-30.7,217.62-15.28,258-.16c14,5.24,21.74,14.84,24.39,29.5Q303,143.61,324,257.8,348.07,389.95,372,522.14c.88,4.9,3,5.69,7.3,5.68q92.49-.14,185-.06,153,0,306,.13c5.85,0,8.68-1.6,10.88-7.28Q940.14,367.7,999.62,215c2.23-5.72,2.21-5.73-3.81-5.82L860.88,207,736,205,610,203c-41.81-.67-83.63-1.15-125.43-2.11-12.83-.3-25.65-.34-38.47-.69C429,199.73,415.41,187,414.2,169.12c-1.13-16.64,9.85-30,24.8-33.73a14.65,14.65,0,0,1,3.43-.62q27.24.19,54.49.5c2.16,0,4.32.33,6.48.36,33,.46,66,.81,99,1.34,37.31.6,74.62,1.35,111.93,2l105.93,1.93q58,1,115.93,2.07l105.43,1.92c8.81.16,17.26,1.52,24.41,7.29,11.7,9.45,15.53,24,10,38.79q-20.82,55.42-41.74,110.83Q984.28,434.4,934.42,567c-4.74,12.67-11.64,22.34-25.43,25.69-3.46.84-7,.63-10.44.63q-236.23,0-472.46-.14c-5.92,0-8.36,1.82-10.22,7.27-7.68,22.55-15.75,45-24,67.32-1.71,4.67-.22,5.63,4,5.29,1.65-.14,3.33,0,5,0q245.72,0,491.45,0c3.66,0,7.33.19,11,.52,15.18,1.39,26.27,13.45,25.76,27.91-.53,15.2-12.54,26.71-28,26.8-7.66.05-15.33,0-23,0-1.27,0-3-.63-3.72.66-.81,1.44.88,2.33,1.64,3.3a99.39,99.39,0,0,1,20,47.31c7.77,51.8-30.28,102.63-82.14,109.7A28.85,28.85,0,0,0,811,890H789a20.65,20.65,0,0,0-2.39-.65c-72.28-10.29-107.88-95.75-64.33-154.42,1.45-2,3-3.88,4.71-6.2H521.27c.41,2.34,1.91,3.53,3,5C558.93,780.3,546.86,845.05,497.73,876c-11.9,7.5-25,11.51-38.73,14H436c-15.62-2.63-30.35-7.57-43.38-16.85-46.13-32.85-55.71-94.32-21.9-140,1-1.37,2.82-2.39,2.64-4.82-7.08,0-14.07,0-21.05,0-20.43-.1-33-17.4-26.69-36.94,2.1-6.49,4.54-12.88,6.83-19.31,8.82-24.8,17.6-49.61,26.53-74.36,1.16-3.22,1-4.65-2.87-4.4-3.31.21-6.66.06-10,0-16.42-.1-29.47-10.8-32.45-27q-13.08-71.21-26-142.45-17.16-94.34-34.3-188.67c-10.47-57.48-21.08-114.93-31.35-172.45-1-5.39-3.24-7.85-8.21-9.69q-47.81-17.67-95.39-36c-23.13-9-28.33-39.09-9.9-55.42C112.78-42,117.89-44,123-46ZM447.2,835a42,42,0,0,0,42.48-41.93c.1-23.39-18.72-42.7-41.74-42.83a42.42,42.42,0,0,0-42.64,41.87C405.14,816.09,423.55,834.94,447.2,835Zm352.88,0a42.27,42.27,0,0,0,42.47-42c.25-23.16-18.81-42.62-41.86-42.76a42.11,42.11,0,0,0-42.47,41.92C758.07,816.27,776.31,834.93,800.08,835Z" transform="translate(-97.41 46)"/></svg>