<svg id="Layer_1" data-name="Layer 1" xmlns="http://www.w3.org/2000/svg" viewBox="0 0 120.02 120"><defs><style>.cls-1{fill:#fff;}</style></defs><path class="cls-1" d="M683.36,324.5a59.92,59.92,0,0,1,60.19,60.29c0,32.75-27,59.66-59.82,59.71a60,60,0,1,1-.37-120Zm11.9,42.9V356.29c-4.92,1-9.72.95-13.42,2.95-7.15,3.87-5.15,11.75-5.57,18.17l-6.43.71v8.6l6.65.73v26h10.2V387.28l8.65-.53c.57-2.85,1.1-5.56,1.72-8.67L687,377.56C686.07,369.25,686.07,369.25,695.26,367.4Z" transform="translate(-623.53 -324.5)"/></svg>