<svg id="Layer_1" data-name="Layer 1" xmlns="http://www.w3.org/2000/svg" viewBox="0 0 120.03 119.99"><defs><style>.cls-1{fill:#fff;}</style></defs><path class="cls-1" d="M683.24,324.51a60.06,60.06,0,0,1,60.29,60.25c0,32.64-27.08,59.71-59.84,59.74a60,60,0,0,1-.45-120Zm-.44,92.4v-.09c4.83,0,9.67.19,14.5,0,9.88-.45,16.9-7.42,17.14-17.24q.34-14.24,0-28.49c-.24-10.34-7.6-17.45-17.91-17.55-9-.09-18-.05-27,0-11.25.05-18.45,7-18.67,18.31q-.25,13.5,0,27c.22,10.75,7.2,17.73,17.92,18.09C673.46,417,678.14,416.91,682.8,416.91Z" transform="translate(-623.5 -324.51)"/><path class="cls-1" d="M682.6,410.78c-4.66,0-9.33.15-14,0-6.76-.25-11.37-4.52-11.58-11.27-.3-9.48-.31-19,0-28.47.21-6.93,5-11.35,12-11.47,9.16-.15,18.32-.13,27.48,0,6.45.09,11.46,4.24,11.76,10.61.46,10,.42,20,0,30-.24,6.23-4.92,10.19-11.2,10.64-.33,0-.66,0-1,0H682.6Zm1.49-9.26a16.45,16.45,0,0,0,16.51-16.47,16.48,16.48,0,1,0-16.51,16.47Zm22.62-33.26c-2.75-1.87-4.26-3.71-5.55-3.57s-3.5,2.19-3.5,3.41,2,3.32,3.41,3.53S703.92,370,706.71,368.26Z" transform="translate(-623.5 -324.51)"/><path class="cls-1" d="M694.72,385a10.58,10.58,0,0,1-21.16.17,10.58,10.58,0,1,1,21.16-.17Z" transform="translate(-623.5 -324.51)"/></svg>