<svg id="Layer_1" data-name="Layer 1" xmlns="http://www.w3.org/2000/svg" viewBox="0 0 299.73 104.59"><defs><style>.cls-1{fill:#a81922;}.cls-2{fill:#11a4c5;}.cls-3{fill:#a91a23;}.cls-4{fill:#a91c24;}.cls-5{fill:#fcfcfc;}.cls-6{fill:#ab191a;}.cls-7{fill:#ad2014;}.cls-8{fill:#ad2016;}.cls-9{fill:#fcfbfc;}.cls-10{fill:#eef5f7;}.cls-11{fill:#d5eff4;}.cls-12{fill:#404042;}.cls-13{fill:#11a4c6;}</style></defs><path class="cls-1" d="M541.78,418.18c-5.48,7.15-4.91,9.81,3.1,14.28,1,.55,2.44.72,2,2.32-.34,1.2-1.6.9-2.53,1.11-4.69,1-7.69-2.35-11.24-4.29v-4c1.21-1.56-.11-3.56.91-5.15.2-4.77.8-8.64,5.47-12.16,9.63-7.27,10.61-19.74,3.27-29.27-4.55-5.91-5.73-11.83-1.85-18.45a12,12,0,0,0,1.47-3.7c2.29-11.72,10.15-17.58,21.06-20.5,2.76-.74,4.09-3.6,6-5.74a16.26,16.26,0,0,1-10.21,17.82c-7.23,3-13,7.38-15.63,15.09a8.48,8.48,0,0,0,.37,7.62c4.76-9.18,13.13-13.89,20.23-20,6.22-5.34,7.42-5.05,15-1.94,6,2.49,12.74,2.3,19.25,2.22,3.2-.05,6.34.76,9.43-2.19,2.82-2.69,11.54-.67,14.19,2.4,1.15,1.34,2.6,1.26,4,1.61,3.39.83,6.81,1.55,10.15,2.56,1.89.57,3.61,1.88,5.5,0,.48-.47,1.55-.77,1.74-.17,1.52,4.87,6.65,2.05,9.3,4.49,1.39,1.29,1.92-.41,2.77-1,1.12-.78,1.56-3.16,3.35-2.2,1.41.75,1,2.77.81,4.15-1.3,7.42.09,14.86-.41,22.28-.22,3.22-.39,6.32,2.95,8.38,1.49.92,1.44,2.59.46,4a7.42,7.42,0,0,1-7.32,3.34,6.88,6.88,0,0,1-4-1.86,32.79,32.79,0,0,0-14.1-9.57c-.37-.5-.84-1-.77-1.64.14-1.19.1-2.08-1.49-1.53-2.37-2.86-2-7.86-6.86-8.75-1.67,0-2.94-1-4.57-1.72-.33-.3-.58,1-.13.53.19-.22.3-.27.37-.25,1.22.3,1.13,1.32,1.24,2.24-.22,2.24.82,4.18,1.45,6.22.53,1.72,1.22,3.48-.21,5.15-4.51,1-9.2,1.53-13,4.58-3.23.82-6.35,0-9.48-.57-2.15,0-4.33-.48-6.41.43A5.07,5.07,0,0,1,596,395a13,13,0,0,1-4.34-.67c-3.94-.57-7.63-2.34-11.68-2.38-1.8-.12-3.63.09-5.39-.43-1.46-.57-2-1.5-1.12-3,.2-.79,1.9-1.36.8-2.19-.84-.64-2,.35-3,.93-.34.28-.69.55-1,.84-.08,6.77-6.33,9.75-9.09,14.87a9.66,9.66,0,0,1-3.52,3.49,5.27,5.27,0,0,1-3.38.72c-1.65-.42-3.12-1.53-4.95-1.3s-2,1.53-2.33,2.79a5.23,5.23,0,0,1-2.16,3.17c-1.56.53-1.29,1.82-1.23,3C543.39,416.19,543.4,417.65,541.78,418.18Z" transform="translate(-533.1 -332.62)"/><path class="cls-1" d="M534,422.44c.15,1.8.72,3.67-.91,5.15v-5A1.58,1.58,0,0,0,534,422.44Z" transform="translate(-533.1 -332.62)"/><path class="cls-2" d="M557.1,405.91l3.22-3.38c2.5-2.18,4.44-4.93,7.16-6.9s.65-5.85,2.62-8.27a1.34,1.34,0,0,1,.17-.85c.94-.81,2.15-.59,3.19-.58,2.64,0,1.52,1.47.83,2.67-.26.7-1.21,1.37-.06,2.1a9.44,9.44,0,0,0,5.92-.11c4.27.13,8.21,1.67,12.24,2.83a.81.81,0,0,1-.78.52c-.5-.08-.53.23-.5.22,2.13-.91,4,1.49,6.18.37a11.14,11.14,0,0,1,5.19.5c3.86,0,7.73,1,11.56-.23,5.15-1.61,10,1.4,15.43,1.31-.48-2.75-3.41-4.12-2.82-6.82-1-2.54-2.09-5.05-3-7.63-.43-1.22-1.52-2.73.61-3.59,1.33-.46,2.88-.36,3.91-1.58,6.11.67,5.82,6,7.29,10,.87.94.76,2.17,1,3.3-.26,2.87,2.36,3.75,3.85,5.35,1.35,1.44,3,2.59,4,4.4,3.38,6.23,2.33,8-4.54,8.12-1.63,0-3.53-.94-5,1.18-2.83,4.21-2.26,6.09,2.8,6.49s8.87,3.75,13.7,4.38a1.87,1.87,0,0,1,1.25,1.35c0,.91-.85,1.28-1.74,1.36-2.21.21-4.56.15-6.3-1.09-3.42-2.45-7.27-2-11-2.37-1.14-.1-2.6-.39-3.08.94s1,2,1.88,2.54c5,3,10.51,5,15.14,8.64.76.6,1.6,1.1,2.74,1.87-2.82,1.93-5.09,1.64-7.46-.09-1.72-1.27-3.25-2.89-5.47-3.38a15.73,15.73,0,0,1-5.55-1.11c-2.48-.9-5.55-.18-7.44-2.69a9.76,9.76,0,0,0-8.42-5.46c-5.51-.53-10.11-4-15-6.49-1.76-.88-3.64-1.54-5.46-2.3-2.78.11-5.55.18-7.39-2.49.24-.78.88-.87,1.56-.87-.3.6.94.38.85.38-2.33-1-3.6.69-5.14.88-4.67.6-8.1,3.57-11.75,6.12-2.45,1.22-4.94,2.29-7.79,1.85-2.63.36-5.29.6-7.9,1.09A7.28,7.28,0,0,0,553.19,430c.68,1,1.63,2.13,1.09,3.14-.8,1.5-2.41.38-3.62.32-1.84-.09-3.71-1.69-3.45-3,1.07-5.53-3.3-8.33-5.43-12.24l1.11-3.66a2.82,2.82,0,0,1,1.29-2.84l1.91-3.25c.79-.84.68-2.4,2.16-2.69a7.82,7.82,0,0,1,4.18.28C554,406.83,555.59,407.9,557.1,405.91Z" transform="translate(-533.1 -332.62)"/><path class="cls-3" d="M588,408.67c2.26,1.41,5.21,1,7.33,2.79-1.75,5-5,9.44-5.2,14.94-.07,2.41-1.35,5.79,3.66,4.68,1.87-.41,3.63,1.48,3.75,3.33.17,2.47-2.59,2.31-3.69,1.95-4.74-1.58-9.1.61-13.62.84a3.28,3.28,0,0,1-3.56-2.23c-1.77-7.1-7.28-11.79-11-17.64,2.12-1.94,5.12-1.65,7.49-2.95,2.34,4.88,4.49,9.9,9.88,13.21-.73-6.82-2.07-13.71,3.69-19A.93.93,0,0,1,588,408.67Z" transform="translate(-533.1 -332.62)"/><path class="cls-4" d="M624.22,425.71l8.19,1.81c1.1,1.22,2.64,1.85,3.87,2.89,1.06,1.38,2.11,3.3.75,4.47-1.95,1.67-4.8,1.31-7.15.76C625.9,434.72,623.65,430.44,624.22,425.71Z" transform="translate(-533.1 -332.62)"/><path class="cls-1" d="M636.45,389.82c-1.62-.71-1.21-2-1-3.3l1.45-1c.1,1.41.19,2.81.29,4.22A4.91,4.91,0,0,1,636.45,389.82Z" transform="translate(-533.1 -332.62)"/><path class="cls-2" d="M636.28,430.41c-2.26.33-3.15-1.17-3.87-2.89a8.37,8.37,0,0,1,4.81,2Z" transform="translate(-533.1 -332.62)"/><path class="cls-5" d="M626.65,389.29a26.05,26.05,0,0,0,6.1,7.25c-6.94,2.51-12.62-2.32-18.54-.83-1,.48-1.83.36-2.23-.83.21-.81.89-1,1.57-1.23C616.86,389,621.74,389.1,626.65,389.29Z" transform="translate(-533.1 -332.62)"/><path class="cls-2" d="M570.1,387.36c1,7.82-4,11.74-9.78,15.17a6.94,6.94,0,0,1,2.08-3.76c3.44-2.84,6.88-5.63,6.11-10.88C568.39,387.11,569.51,387.43,570.1,387.36Z" transform="translate(-533.1 -332.62)"/><path class="cls-6" d="M613.55,393.65l-1.32,1.09c-.61,1.25-1.67,1.37-2.87,1.18-1.9-.68-3.9-.24-5.84-.47a3.25,3.25,0,0,1-1.2-.46,1.52,1.52,0,0,1-.47-1.14c.21-.67.88-.87,1.33-1.3Z" transform="translate(-533.1 -332.62)"/><path class="cls-2" d="M574.29,388.6c0-3.28-2.53-1.68-4-2.09.27-1.66,1.87-.95,2.78-1.49,1.26-.75,3.28-1.2,3.81.27A2.57,2.57,0,0,1,574.29,388.6Z" transform="translate(-533.1 -332.62)"/><path class="cls-1" d="M628.17,376.49c-.45,2.63-1.87,2.87-3.91,1.58-.35-.7-1.9-1.52-2.42-2.55C623.66,375.82,626.51,376.22,628.17,376.49Z" transform="translate(-533.1 -332.62)"/><path class="cls-2" d="M553.25,406.59h-5c-.93-1.25.35-1.46.93-2,2-.32,3.56.78,5.07,1.89C554,407,553.64,407,553.25,406.59Z" transform="translate(-533.1 -332.62)"/><path class="cls-2" d="M597.2,395.52,588.89,394l3.5-.62c1.42-.44,2.49.48,3.69.91a1.12,1.12,0,0,1,1.24,0A.85.85,0,0,1,597.2,395.52Z" transform="translate(-533.1 -332.62)"/><path class="cls-1" d="M603.18,392.55,602,393.66a4.78,4.78,0,0,1-5.82-.28C598.35,391.76,600.85,392.85,603.18,392.55Z" transform="translate(-533.1 -332.62)"/><path class="cls-2" d="M580.15,390.59a4.75,4.75,0,0,1-5.92.11A9.65,9.65,0,0,1,580.15,390.59Z" transform="translate(-533.1 -332.62)"/><path class="cls-7" d="M549.22,404.59l-.93,2-2.2,1.84C546.05,406.26,546.63,404.61,549.22,404.59Z" transform="translate(-533.1 -332.62)"/><path class="cls-8" d="M544.18,411.68l-1.29,2.84a1.93,1.93,0,0,1-.18-2.89C543.17,411,543.71,411,544.18,411.68Z" transform="translate(-533.1 -332.62)"/><path class="cls-1" d="M596.18,393.38l5.82.28c.09.27.18.53.25.8-1.66,1-3.35.72-5,.11l-1.12-.24C596.1,394,596.13,393.7,596.18,393.38Z" transform="translate(-533.1 -332.62)"/><path class="cls-2" d="M553.25,406.59l1-.11,2.81-.57C556.19,408.27,554.82,408,553.25,406.59Z" transform="translate(-533.1 -332.62)"/><path class="cls-9" d="M587,408.91c-4.8,6.42-3.19,13.75-2.28,22.29-5.79-5.49-11.75-9-11.52-16.82,3.71-2.62,7-6.16,12.05-6C585.94,408.13,586.68,407.76,587,408.91Z" transform="translate(-533.1 -332.62)"/><path class="cls-10" d="M553.37,411.67c-2.51,2.46-3.85,5.67-5.27,9-3.19-4-2.44-5.72,4-9.85C552.6,411,553.18,411.06,553.37,411.67Z" transform="translate(-533.1 -332.62)"/><path class="cls-11" d="M553.37,411.67l-1.23-.87c1.66,0,3.32,0,5-.11s3.22-.27,5.34-.45C559.6,414.68,556.19,411,553.37,411.67Z" transform="translate(-533.1 -332.62)"/><path class="cls-2" d="M609.18,395.55l3.05-.81c.36.95,1.3.69,2,1-3.86,2.38-8,.06-12,.8a.84.84,0,0,1,.35-1.36C604.77,395.2,607,394.57,609.18,395.55Z" transform="translate(-533.1 -332.62)"/><path class="cls-2" d="M587,408.91l-1.75-.49c1.56-1.36,3.28-.94,6.18-.29l-3.4.54Z" transform="translate(-533.1 -332.62)"/><path class="cls-2" d="M602.21,395.57c0,.31,0,.62,0,.94a8.76,8.76,0,0,0-5-1v-.95l5-.11-.1.2c.39.18.52.37.41.58S602.33,395.57,602.21,395.57Z" transform="translate(-533.1 -332.62)"/><path class="cls-2" d="M602.21,395.57l-.06-.91c2.37.14,4.82-.41,7,.89Z" transform="translate(-533.1 -332.62)"/><path class="cls-12" d="M714.39,365.56a10.4,10.4,0,0,1,.39,1.1,4.05,4.05,0,0,1,.19,1.16,3.36,3.36,0,0,1-1.42,2.78,5,5,0,0,1-3.1,1.1,4.61,4.61,0,0,1-3.49-1.52,5.06,5.06,0,0,1-1.42-3.59,7.81,7.81,0,0,1,.77-3.49,7.9,7.9,0,0,1,2.17-2.65,10,10,0,0,1,3.26-1.68,14.18,14.18,0,0,1,4.14-.58,12.2,12.2,0,0,1,4.1.68,11.17,11.17,0,0,1,3.33,1.84,8.43,8.43,0,0,1,2.19,2.68,6.94,6.94,0,0,1,.78,3.2v15.9a1.64,1.64,0,0,0,.06.42.3.3,0,0,0,.33.22c.21,0,.37-.13.48-.41a2.07,2.07,0,0,0,.16-.75v-1.16h2.59v1.74a11.82,11.82,0,0,1-1.36,6.21q-1.35,2.19-5,2.19a6.66,6.66,0,0,1-3.3-.64,10.87,10.87,0,0,1-2.2-1.75,17.81,17.81,0,0,1-2.52,1.68,6.39,6.39,0,0,1-3.16.71,7,7,0,0,1-5.75-2.52,10,10,0,0,1-2.07-6.59,10.26,10.26,0,0,1,.81-4.29,7.43,7.43,0,0,1,2.42-3,14.65,14.65,0,0,1,4-2,45.61,45.61,0,0,1,5.63-1.45v-3.3a3.54,3.54,0,0,0-.49-2,1.63,1.63,0,0,0-1.45-.71,1.37,1.37,0,0,0-.68.13A1.8,1.8,0,0,0,714.39,365.56Zm3,11.18a5.47,5.47,0,0,0-2.72,1.06,3.43,3.43,0,0,0-1,2.75,11.45,11.45,0,0,0,.23,2.36,1.3,1.3,0,0,0,1.45,1.07,1.83,1.83,0,0,0,1.42-.65,2.71,2.71,0,0,0,.59-1.87Z" transform="translate(-533.1 -332.62)"/><path class="cls-12" d="M745.41,360.71a7.65,7.65,0,0,1,1.84-1.68,4.49,4.49,0,0,1,2.42-.58,6.31,6.31,0,0,1,2.68.52,5.4,5.4,0,0,1,1.88,1.39,5.69,5.69,0,0,1,1.09,2,7,7,0,0,1,.36,2.19q0,6.86-4.33,6.85A4.07,4.07,0,0,1,748,370a4.35,4.35,0,0,1-1.1-2.72,3.85,3.85,0,0,0-.1-.8,2.08,2.08,0,0,1,.3-1.26,2.1,2.1,0,0,0-1.39,1.09,7.12,7.12,0,0,0-.29,2.46v11.37c0,1.38.22,2.24.67,2.59a4.14,4.14,0,0,0,2.1.64v6.92H734v-7c1.72,0,2.58-1.1,2.58-3.17V368.79a3.44,3.44,0,0,0-.58-2.2,2.85,2.85,0,0,0-2-.84v-6.91h11.18Z" transform="translate(-533.1 -332.62)"/><path class="cls-12" d="M779.59,377.64a30.26,30.26,0,0,1-.52,5.95,11.16,11.16,0,0,1-1.71,4.2,7.41,7.41,0,0,1-3.1,2.52,11.81,11.81,0,0,1-4.75.84,9.53,9.53,0,0,1-8.47-4.4c-1.94-2.92-2.91-7.15-2.91-12.66a23.67,23.67,0,0,1,1.46-8.92,11.64,11.64,0,0,1,4.81-5.62,9.53,9.53,0,0,1,2.55-1.2,11.75,11.75,0,0,1,2.82-.29,9.52,9.52,0,0,1,4.84,1.23,9.19,9.19,0,0,1,3.43,3.56,13,13,0,0,1,1.32,4.23,37.3,37.3,0,0,1,.36,5.46c0,.6,0,1.24,0,1.9s0,1.31,0,1.91H768.28a35.45,35.45,0,0,0,.39,5.23c.21,1.25.75,1.88,1.61,1.88a1.62,1.62,0,0,0,1.2-.42,2.52,2.52,0,0,0,.61-1.16,9.33,9.33,0,0,0,.26-1.81c0-.71.09-1.52.13-2.43Zm-7.89-7a19.3,19.3,0,0,0-.25-3.55c-.18-.87-.63-1.3-1.36-1.3A1.52,1.52,0,0,0,768.6,367a11.8,11.8,0,0,0-.32,3.59Z" transform="translate(-533.1 -332.62)"/><path class="cls-12" d="M787.66,390.31h-4.07V378h5.82a27.13,27.13,0,0,0,1.1,4.14,2,2,0,0,0,1.94,1.55,2.14,2.14,0,0,0,1.32-.46,1.57,1.57,0,0,0,.62-1.35c0-.61-.53-1.33-1.59-2.17a35.74,35.74,0,0,0-4.55-2.94,8.57,8.57,0,0,1-3.4-3.78,13.32,13.32,0,0,1-1.26-6,10.17,10.17,0,0,1,.62-3.59,8.26,8.26,0,0,1,1.74-2.84,8.67,8.67,0,0,1,2.65-1.91,7.8,7.8,0,0,1,3.33-.71,7.25,7.25,0,0,1,2,.26,10,10,0,0,1,1.56.58c.45.22.84.41,1.16.58a1.81,1.81,0,0,0,.74.26.58.58,0,0,0,.55-.29c.11-.2.21-.38.29-.55h4.07v11.31h-5.62a25.22,25.22,0,0,0-1-3.49,1.88,1.88,0,0,0-1.88-1.29,1.24,1.24,0,0,0-1,.45,1.49,1.49,0,0,0-.38,1,1.5,1.5,0,0,0,.84,1.29l3.71,2.49a18.93,18.93,0,0,1,3.14,2.61,11.86,11.86,0,0,1,2.19,3.27,10.94,10.94,0,0,1,.84,4.55,12.33,12.33,0,0,1-.64,4.14,9.22,9.22,0,0,1-1.81,3.1,7.78,7.78,0,0,1-2.75,2,8.59,8.59,0,0,1-3.39.68,8.33,8.33,0,0,1-2.17-.26,10.37,10.37,0,0,1-1.64-.58l-1.23-.58a2.15,2.15,0,0,0-.91-.26,1.16,1.16,0,0,0-.67.26A.84.84,0,0,0,787.66,390.31Z" transform="translate(-533.1 -332.62)"/><path class="cls-13" d="M810.15,367.49a6.93,6.93,0,0,1,1.74-5.05,5.92,5.92,0,0,1,4.43-1.78,6.31,6.31,0,0,1,2.55.48,5.56,5.56,0,0,1,1.85,1.3,5.45,5.45,0,0,1,1.13,1.9,6.72,6.72,0,0,1,.37,2.22,7.25,7.25,0,0,1-.24,2,6.63,6.63,0,0,1-.68,1.59,7.94,7.94,0,0,1-1.13,1.41c-.45.45-1,.92-1.52,1.39l1.33,2.73q1.66-4.14,4.89-4.14a3.94,3.94,0,0,1,1.56.33,4.79,4.79,0,0,1,1.37.88,4.62,4.62,0,0,1,1,1.27,3.32,3.32,0,0,1,.38,1.52,4.42,4.42,0,0,1-.82,2.76,2.75,2.75,0,0,1-2.35,1.08,2.61,2.61,0,0,1-1.63-.55c-.47-.37-.71-.72-.71-1a2.38,2.38,0,0,0,0-.33,1,1,0,0,1,0-.33,3.07,3.07,0,0,0-1,1.28c-.16.44-.31.95-.46,1.54a43.32,43.32,0,0,0,2.05,3.88q.85,1.41,1.47,1.41c.33,0,.52-.19.58-.58s.1-.77.13-1.19h3.08c0,.53,0,1,0,1.37a4.68,4.68,0,0,1-.15,1.32,5.5,5.5,0,0,1-1.81,3.28,5,5,0,0,1-3.34,1.22,7.32,7.32,0,0,1-2-.25,5.55,5.55,0,0,1-1.54-.66,6,6,0,0,1-1.19-1,10.74,10.74,0,0,1-1-1.19,8.75,8.75,0,0,1-2.54,2.31,6.23,6.23,0,0,1-3.19.78,6.13,6.13,0,0,1-2.67-.6,7,7,0,0,1-2.18-1.63,8.11,8.11,0,0,1-2-5.44,11.85,11.85,0,0,1,.31-2.91,7.5,7.5,0,0,1,1-2.27,9.91,9.91,0,0,1,1.7-2c.69-.61,1.51-1.26,2.45-1.94-.24-.82-.49-1.74-.75-2.77A14.32,14.32,0,0,1,810.15,367.49Zm6,16.83q-.61-1-1.41-2.52c-.53-1-1.13-2.17-1.8-3.52a2.08,2.08,0,0,0-.84.66,2.24,2.24,0,0,0-.22,1.15,6.16,6.16,0,0,0,.33,2.07,8.31,8.31,0,0,0,.77,1.61,4,4,0,0,0,.93,1.05,1.43,1.43,0,0,0,.79.38,1.38,1.38,0,0,0,.9-.24A3.22,3.22,0,0,0,816.14,384.32Zm.44-15.6a2.16,2.16,0,0,0,.86-1.1,6.84,6.84,0,0,0,.07-1.1,1.05,1.05,0,0,0-.29-.69.83.83,0,0,0-.64-.33.74.74,0,0,0-.55.25.81.81,0,0,0-.24.59c0,.32,0,.65,0,1A3.32,3.32,0,0,0,816.58,368.72Z" transform="translate(-533.1 -332.62)"/><path class="cls-12" d="M751.41,414.41a30.4,30.4,0,0,1-.51,5.95,11.16,11.16,0,0,1-1.71,4.2,7.44,7.44,0,0,1-3.11,2.52,11.78,11.78,0,0,1-4.75.84,9.52,9.52,0,0,1-8.46-4.4Q730,419.13,730,410.86a23.67,23.67,0,0,1,1.46-8.92,11.59,11.59,0,0,1,4.81-5.62,9.53,9.53,0,0,1,2.55-1.2,11.72,11.72,0,0,1,2.81-.29,9.53,9.53,0,0,1,4.85,1.23,9.07,9.07,0,0,1,3.42,3.55,12.88,12.88,0,0,1,1.33,4.24,38.85,38.85,0,0,1,.35,5.46c0,.6,0,1.23,0,1.9s0,1.31,0,1.91H740.11a37.29,37.29,0,0,0,.38,5.23c.22,1.25.76,1.88,1.62,1.88a1.64,1.64,0,0,0,1.2-.42,2.5,2.5,0,0,0,.61-1.17,9.9,9.9,0,0,0,.26-1.81c0-.71.08-1.51.13-2.42Zm-7.88-7a19.35,19.35,0,0,0-.26-3.56q-.25-1.29-1.35-1.29a1.51,1.51,0,0,0-1.49,1.26,11.49,11.49,0,0,0-.32,3.59Z" transform="translate(-533.1 -332.62)"/><path class="cls-12" d="M768.15,420.16v6.92H756.07v-6.92a.47.47,0,0,1,.19,0,.35.35,0,0,0,.2,0,1.62,1.62,0,0,0,1.29-.52,1.79,1.79,0,0,0,.45-1.23V404.65a2.18,2.18,0,0,0-.48-1.58,2.52,2.52,0,0,0-1.65-.55v-6.91h11v1.94q1.37-2.6,5.17-2.59a7.19,7.19,0,0,1,2.72.52,8.24,8.24,0,0,1,2.26,1.32,6.63,6.63,0,0,1,1.55,1.88,4.55,4.55,0,0,1,.58,2.23V418a2.26,2.26,0,0,0,.45,1.65,2.37,2.37,0,0,0,1.49.48v6.92H769v-6.92a1.89,1.89,0,0,0,1.1-.55,1.34,1.34,0,0,0,.39-.93V406.85c0-.43,0-.78,0-1.06s0-.64,0-1.07c0-1.51-.6-2.26-1.81-2.26-.43,0-.89.37-1.39,1.13a5.42,5.42,0,0,0-.74,3v11.57a2.87,2.87,0,0,0,.32,1.52A1.39,1.39,0,0,0,768.15,420.16Z" transform="translate(-533.1 -332.62)"/><path class="cls-12" d="M794.32,402.33a10.4,10.4,0,0,1,.39,1.1,4,4,0,0,1,.19,1.16,3.36,3.36,0,0,1-1.42,2.78,5,5,0,0,1-3.1,1.1,4.61,4.61,0,0,1-3.49-1.52,5.06,5.06,0,0,1-1.42-3.59,7.81,7.81,0,0,1,.77-3.49,7.9,7.9,0,0,1,2.17-2.65,10,10,0,0,1,3.26-1.68,13.86,13.86,0,0,1,4.14-.58,12.2,12.2,0,0,1,4.1.68,11.17,11.17,0,0,1,3.33,1.84,8.46,8.46,0,0,1,2.2,2.68,7.05,7.05,0,0,1,.77,3.2v15.9a1.32,1.32,0,0,0,.07.42.29.29,0,0,0,.32.22c.21,0,.38-.14.48-.42a2,2,0,0,0,.16-.74v-1.16h2.59v1.74a11.76,11.76,0,0,1-1.36,6.2q-1.35,2.21-5,2.2a6.66,6.66,0,0,1-3.3-.64,11.54,11.54,0,0,1-2.2-1.75,16.74,16.74,0,0,1-2.52,1.68,6.5,6.5,0,0,1-3.16.71,7,7,0,0,1-5.75-2.52,10,10,0,0,1-2.07-6.59,10.34,10.34,0,0,1,.81-4.3,7.55,7.55,0,0,1,2.42-3,14.44,14.44,0,0,1,4-2,46.64,46.64,0,0,1,5.62-1.46v-3.29a3.46,3.46,0,0,0-.49-2,1.62,1.62,0,0,0-1.45-.72,1.49,1.49,0,0,0-.68.13A2.18,2.18,0,0,0,794.32,402.33Zm3,11.18a5.38,5.38,0,0,0-2.72,1.06,3.43,3.43,0,0,0-1,2.75,11.45,11.45,0,0,0,.23,2.36,1.3,1.3,0,0,0,1.46,1.06,1.85,1.85,0,0,0,1.42-.64,2.76,2.76,0,0,0,.58-1.88Z" transform="translate(-533.1 -332.62)"/><path class="cls-12" d="M817.32,427.08h-4.07V414.8h5.82a26.64,26.64,0,0,0,1.1,4.13,2,2,0,0,0,1.94,1.56,2.14,2.14,0,0,0,1.32-.46,1.56,1.56,0,0,0,.61-1.35c0-.61-.52-1.33-1.58-2.17a35.74,35.74,0,0,0-4.55-2.94,8.57,8.57,0,0,1-3.4-3.78,13.34,13.34,0,0,1-1.26-6,10.16,10.16,0,0,1,.62-3.58,8.4,8.4,0,0,1,1.74-2.85,8.81,8.81,0,0,1,2.65-1.9,7.65,7.65,0,0,1,3.33-.71,6.9,6.9,0,0,1,2,.26,10,10,0,0,1,1.56.58c.45.21.84.41,1.16.58a1.81,1.81,0,0,0,.74.26.58.58,0,0,0,.55-.29l.29-.55H832v11.31h-5.62a25.22,25.22,0,0,0-1-3.49,1.88,1.88,0,0,0-1.88-1.3,1.25,1.25,0,0,0-1,.46,1.49,1.49,0,0,0-.38,1,1.52,1.52,0,0,0,.84,1.29l3.71,2.49A18.93,18.93,0,0,1,829.8,410a11.86,11.86,0,0,1,2.19,3.27,10.91,10.91,0,0,1,.84,4.55,12.33,12.33,0,0,1-.64,4.14,9.32,9.32,0,0,1-1.81,3.1,7.78,7.78,0,0,1-2.75,2,8.59,8.59,0,0,1-3.39.68,8.33,8.33,0,0,1-2.17-.26,11.48,11.48,0,0,1-1.64-.58l-1.23-.58a2,2,0,0,0-.91-.26,1.14,1.14,0,0,0-.68.26A.86.86,0,0,0,817.32,427.08Z" transform="translate(-533.1 -332.62)"/><path class="cls-12" d="M717.88,395.61v6.78a2.62,2.62,0,0,1,.77.36.83.83,0,0,1,.33.74,4.58,4.58,0,0,1-.07.58,1.79,1.79,0,0,1-.13.52L717,412.41l-1.29-7.82c0-.17-.08-.3-.1-.39a1.79,1.79,0,0,1,0-.39,1.41,1.41,0,0,1,1.22-1.42v-6.78H704.12v6.78c1.29.3,2.15,1.36,2.58,3.17l5.82,23.65a2.24,2.24,0,0,1,.12.52s0,.13,0,.2-.4,2.66-2.48,2.54-6.5-4.21-12.17-4.05-8.42,4.42-10.42,4.5a19.76,19.76,0,0,1-4.66-.58,7.56,7.56,0,0,0,6.91,3.75c4.92-.17,9.84-5.08,12.17-5.17s4.17,2.09,4.17,2.09,3.08,3.41,5.58,3.5a7.23,7.23,0,0,0,4.22-1.2,7.42,7.42,0,0,0,.86-.61,8.66,8.66,0,0,0,2.81-4.52l5.82-24.62a9.61,9.61,0,0,1,.71-2.26,1.93,1.93,0,0,1,1.68-.91v-6.78Z" transform="translate(-533.1 -332.62)"/><path class="cls-12" d="M699.85,382.52a3.22,3.22,0,0,1-.45-1.9V365.75a8.61,8.61,0,0,0-1.88-5.84,7.75,7.75,0,0,0-8.69-1.43,6.28,6.28,0,0,0-2.36,2.1V347.21H675.68v6.59a3.54,3.54,0,0,1,1.68,1.36,5.3,5.3,0,0,1,.52,2.71V380c0,.08,0,.15,0,.23v10.11h8.6V374.39h0v-3.47a12.47,12.47,0,0,1,.62-4.17c.41-1.14.94-1.71,1.58-1.71s1.23.45,1.49,1.36a15.46,15.46,0,0,1,.39,4v9.88a4.3,4.3,0,0,1-.39,2.2,2.52,2.52,0,0,1-1.1.9v6.92h12.08v-6.92A2.4,2.4,0,0,1,699.85,382.52Z" transform="translate(-533.1 -332.62)"/><path class="cls-12" d="M699.85,419.29a3.24,3.24,0,0,1-.45-1.91V402.52a8.66,8.66,0,0,0-1.88-5.85,7,7,0,0,0-5.55-2.16,6.88,6.88,0,0,0-3.14.74,6.28,6.28,0,0,0-2.36,2.1V384h-8.6V394.4c0,.09,0,.15,0,.24v22.1a4.37,4.37,0,0,1-.55,2.65,2.41,2.41,0,0,1-1.65.77v6.92h12.09v-6.92a1.48,1.48,0,0,1-1.13-1,10.48,10.48,0,0,1-.17-2.23v-9.24a12.38,12.38,0,0,1,.62-4.17c.41-1.14.94-1.71,1.58-1.71s1.23.45,1.49,1.36a15.42,15.42,0,0,1,.39,4v9.89a4.3,4.3,0,0,1-.39,2.2,2.59,2.59,0,0,1-1.1.9v6.92h12.08v-6.92A2.4,2.4,0,0,1,699.85,419.29Z" transform="translate(-533.1 -332.62)"/></svg>