<svg id="Layer_1" data-name="Layer 1" xmlns="http://www.w3.org/2000/svg" viewBox="0 0 320.88 53.66"><defs><style>.cls-1{fill:#fff;}.cls-2{fill:#11a4c6;}</style></defs><path class="cls-1" d="M-340.69,311.28v13.66a6.3,6.3,0,0,1,2.41-2.14,6.86,6.86,0,0,1,3.2-.76,7.1,7.1,0,0,1,5.67,2.21,8.81,8.81,0,0,1,1.92,6V345.4a3.3,3.3,0,0,0,.46,2,2.46,2.46,0,0,0,1.32.89v7.06H-338v-7.06a2.69,2.69,0,0,0,1.12-.92,4.5,4.5,0,0,0,.39-2.25V335a16.19,16.19,0,0,0-.39-4.1c-.27-.92-.77-1.38-1.52-1.38s-1.2.58-1.62,1.75a12.59,12.59,0,0,0-.62,4.25v9.44a11.08,11.08,0,0,0,.16,2.28,1.55,1.55,0,0,0,1.16,1v7.06h-12.35v-7.06a2.48,2.48,0,0,0,1.69-.79,4.51,4.51,0,0,0,.56-2.71V322.17a5.52,5.52,0,0,0-.53-2.77,3.72,3.72,0,0,0-1.72-1.39v-6.73Z" transform="translate(351.72 -311.28)"/><path class="cls-1" d="M-312.18,330a10.12,10.12,0,0,1,.39,1.12,3.9,3.9,0,0,1,.2,1.19,3.42,3.42,0,0,1-1.45,2.83,5.07,5.07,0,0,1-3.17,1.13,4.67,4.67,0,0,1-3.56-1.56,5.15,5.15,0,0,1-1.45-3.66,7.8,7.8,0,0,1,.79-3.56,7.91,7.91,0,0,1,2.21-2.71,10.1,10.1,0,0,1,3.33-1.71,14.13,14.13,0,0,1,4.23-.6,12.24,12.24,0,0,1,4.19.7,11.2,11.2,0,0,1,3.4,1.88,8.59,8.59,0,0,1,2.24,2.74,7,7,0,0,1,.79,3.26v16.24a1.42,1.42,0,0,0,.07.43.3.3,0,0,0,.33.23c.22,0,.38-.14.49-.43a2.2,2.2,0,0,0,.17-.76V345.6h2.64v1.78a12,12,0,0,1-1.39,6.34c-.92,1.5-2.62,2.24-5.08,2.24a6.8,6.8,0,0,1-3.37-.66,11.55,11.55,0,0,1-2.24-1.78,19.52,19.52,0,0,1-2.57,1.72,6.69,6.69,0,0,1-3.24.72,7.16,7.16,0,0,1-5.87-2.57,10.27,10.27,0,0,1-2.11-6.73,10.55,10.55,0,0,1,.82-4.39,7.75,7.75,0,0,1,2.48-3,14.88,14.88,0,0,1,4.09-2,46.79,46.79,0,0,1,5.74-1.49v-3.36a3.61,3.61,0,0,0-.49-2,1.7,1.7,0,0,0-1.49-.73,1.37,1.37,0,0,0-.69.14A1.5,1.5,0,0,0-312.18,330Zm3.1,11.41a5.54,5.54,0,0,0-2.77,1.09,3.48,3.48,0,0,0-1,2.81,11.27,11.27,0,0,0,.23,2.41,1.33,1.33,0,0,0,1.48,1.09,1.89,1.89,0,0,0,1.46-.66,2.81,2.81,0,0,0,.59-1.92Z" transform="translate(351.72 -311.28)"/><path class="cls-1" d="M-280.5,325.08a7.79,7.79,0,0,1,1.88-1.72,4.59,4.59,0,0,1,2.47-.59,6.57,6.57,0,0,1,2.74.52,5.66,5.66,0,0,1,1.92,1.42,6,6,0,0,1,1.12,2A7.28,7.28,0,0,1-270,329c0,4.66-1.47,7-4.42,7a4.17,4.17,0,0,1-3.43-1.39,4.39,4.39,0,0,1-1.12-2.77,5,5,0,0,0-.1-.83,2.06,2.06,0,0,1,.29-1.28,2.16,2.16,0,0,0-1.42,1.12,7.61,7.61,0,0,0-.29,2.51v11.61q0,2.12.69,2.64a4.14,4.14,0,0,0,2.15.66v7.06h-14.52v-7.12c1.75-.05,2.64-1.13,2.64-3.24V333.33a3.5,3.5,0,0,0-.6-2.25,2.88,2.88,0,0,0-2-.86v-7.06h11.41Z" transform="translate(351.72 -311.28)"/><path class="cls-1" d="M-245.59,342.37a30.73,30.73,0,0,1-.53,6.07,11,11,0,0,1-1.75,4.29A7.56,7.56,0,0,1-251,355.3a12,12,0,0,1-4.86.86,9.7,9.7,0,0,1-8.64-4.49q-3-4.49-3-12.93a24.22,24.22,0,0,1,1.48-9.11,11.89,11.89,0,0,1,4.92-5.74,9.33,9.33,0,0,1,2.61-1.22,11.59,11.59,0,0,1,2.87-.3,9.79,9.79,0,0,1,5,1.25,9.34,9.34,0,0,1,3.5,3.63,13.18,13.18,0,0,1,1.35,4.33,39,39,0,0,1,.36,5.57q0,.93,0,2t0,1.95h-11.62a36.69,36.69,0,0,0,.4,5.34q.33,1.92,1.65,1.92a1.65,1.65,0,0,0,1.22-.43,2.59,2.59,0,0,0,.62-1.19,9.48,9.48,0,0,0,.27-1.85c0-.72.09-1.55.13-2.47Zm-8-7.2a19,19,0,0,0-.27-3.63q-.26-1.32-1.38-1.32a1.54,1.54,0,0,0-1.52,1.29,12.21,12.21,0,0,0-.33,3.66Z" transform="translate(351.72 -311.28)"/><path class="cls-1" d="M-237.34,355.3h-4.16V342.76h5.94a29,29,0,0,0,1.12,4.23,2.07,2.07,0,0,0,2,1.58,2.23,2.23,0,0,0,1.36-.46,1.61,1.61,0,0,0,.62-1.39c0-.61-.53-1.35-1.61-2.21a38.47,38.47,0,0,0-4.66-3,8.79,8.79,0,0,1-3.46-3.86,13.61,13.61,0,0,1-1.29-6.11,10.34,10.34,0,0,1,.63-3.66,8.47,8.47,0,0,1,1.78-2.9,8.65,8.65,0,0,1,2.71-2,7.94,7.94,0,0,1,3.4-.73,7.24,7.24,0,0,1,2.08.27,10.27,10.27,0,0,1,1.58.59c.46.22.86.42,1.19.6a1.87,1.87,0,0,0,.76.26.59.59,0,0,0,.56-.3,6,6,0,0,0,.29-.56h4.16v11.55h-5.74a24.73,24.73,0,0,0-1.06-3.56,1.91,1.91,0,0,0-1.91-1.32,1.23,1.23,0,0,0-1,.46,1.53,1.53,0,0,0-.4,1,1.54,1.54,0,0,0,.86,1.32l3.8,2.54a20.22,20.22,0,0,1,3.2,2.67,12,12,0,0,1,2.24,3.34,11.19,11.19,0,0,1,.86,4.65,12.5,12.5,0,0,1-.66,4.22,9.37,9.37,0,0,1-1.85,3.17,7.86,7.86,0,0,1-2.8,2,8.61,8.61,0,0,1-3.47.7,8.2,8.2,0,0,1-2.21-.27,10.53,10.53,0,0,1-1.68-.59l-1.26-.59a2.08,2.08,0,0,0-.92-.27,1.16,1.16,0,0,0-.69.27A.86.86,0,0,0-237.34,355.3Z" transform="translate(351.72 -311.28)"/><path class="cls-2" d="M-214.37,332a7.05,7.05,0,0,1,1.78-5.15,6.05,6.05,0,0,1,4.52-1.82,6.43,6.43,0,0,1,2.61.49,5.65,5.65,0,0,1,1.89,1.33,5.58,5.58,0,0,1,1.15,1.94,7,7,0,0,1,.38,2.27,7.15,7.15,0,0,1-.25,2,6.56,6.56,0,0,1-.7,1.62,7.5,7.5,0,0,1-1.14,1.44c-.47.47-1,.94-1.56,1.42l1.35,2.79q1.71-4.23,5-4.23a4,4,0,0,1,1.6.34,4.62,4.62,0,0,1,1.39.9,4.67,4.67,0,0,1,1,1.3,3.41,3.41,0,0,1,.38,1.55,4.54,4.54,0,0,1-.83,2.82,2.86,2.86,0,0,1-2.41,1.1,2.64,2.64,0,0,1-1.66-.56c-.48-.38-.72-.73-.72-1.06a2.68,2.68,0,0,0,0-.34.84.84,0,0,1,0-.34,3.12,3.12,0,0,0-1,1.31,14.22,14.22,0,0,0-.48,1.57q1.22,2.52,2.1,4t1.5,1.44c.33,0,.53-.19.59-.58s.1-.8.13-1.22h3.15c0,.54,0,1,0,1.4a5.35,5.35,0,0,1-.16,1.35,5.65,5.65,0,0,1-1.85,3.35,5.05,5.05,0,0,1-3.42,1.24,7.62,7.62,0,0,1-2.07-.25,5.76,5.76,0,0,1-1.57-.67,6.29,6.29,0,0,1-1.22-1,12.46,12.46,0,0,1-1-1.21,8.94,8.94,0,0,1-2.58,2.36,6.44,6.44,0,0,1-3.27.79,6.22,6.22,0,0,1-2.72-.61,7,7,0,0,1-2.23-1.66,8.14,8.14,0,0,1-1.5-2.48,8.15,8.15,0,0,1-.57-3.08,12.33,12.33,0,0,1,.32-3,7.85,7.85,0,0,1,1-2.32,10,10,0,0,1,1.73-2,29.56,29.56,0,0,1,2.5-2c-.24-.84-.5-1.78-.77-2.84A14.88,14.88,0,0,1-214.37,332Zm6.12,17.19c-.42-.69-.9-1.54-1.44-2.56s-1.16-2.22-1.85-3.6a2,2,0,0,0-.85.67,2.29,2.29,0,0,0-.23,1.17,6.41,6.41,0,0,0,.34,2.12,8.08,8.08,0,0,0,.79,1.64,4.1,4.1,0,0,0,.94,1.08,1.44,1.44,0,0,0,.81.38,1.48,1.48,0,0,0,.93-.24A3.45,3.45,0,0,0-208.25,349.18Zm.45-15.93a2.26,2.26,0,0,0,.88-1.12,8.84,8.84,0,0,0,.06-1.13,1.05,1.05,0,0,0-.29-.69.84.84,0,0,0-.65-.34.75.75,0,0,0-.56.25.79.79,0,0,0-.25.6c0,.34,0,.66,0,1A3.37,3.37,0,0,0-207.8,333.25Z" transform="translate(351.72 -311.28)"/><path class="cls-1" d="M-180.33,311.28v13.66a6.37,6.37,0,0,1,2.41-2.14,6.89,6.89,0,0,1,3.2-.76,7.12,7.12,0,0,1,5.68,2.21,8.81,8.81,0,0,1,1.91,6V345.4a3.29,3.29,0,0,0,.47,2,2.39,2.39,0,0,0,1.32.89v7.06h-12.35v-7.06a2.66,2.66,0,0,0,1.13-.92,4.5,4.5,0,0,0,.39-2.25V335a16.19,16.19,0,0,0-.39-4.1c-.27-.92-.77-1.38-1.52-1.38s-1.2.58-1.62,1.75a12.57,12.57,0,0,0-.63,4.25v9.44a10.9,10.9,0,0,0,.17,2.28,1.53,1.53,0,0,0,1.15,1v7.06h-12.34v-7.06a2.48,2.48,0,0,0,1.69-.79,4.51,4.51,0,0,0,.56-2.71V322.17a5.52,5.52,0,0,0-.53-2.77,3.77,3.77,0,0,0-1.72-1.39v-6.73Z" transform="translate(351.72 -311.28)"/><path class="cls-1" d="M-114,342.37a30.79,30.79,0,0,1-.52,6.07,11.34,11.34,0,0,1-1.75,4.29,7.59,7.59,0,0,1-3.17,2.57,11.93,11.93,0,0,1-4.85.86,9.71,9.71,0,0,1-8.65-4.49q-3-4.49-3-12.93a24.21,24.21,0,0,1,1.49-9.11,11.93,11.93,0,0,1,4.91-5.74,9.33,9.33,0,0,1,2.61-1.22,11.64,11.64,0,0,1,2.87-.3,9.79,9.79,0,0,1,5,1.25,9.34,9.34,0,0,1,3.5,3.63,13.18,13.18,0,0,1,1.35,4.33,38.9,38.9,0,0,1,.37,5.57c0,.62,0,1.27,0,2s0,1.33,0,1.95h-11.62a38.18,38.18,0,0,0,.4,5.34q.33,1.92,1.65,1.92a1.64,1.64,0,0,0,1.22-.43,2.51,2.51,0,0,0,.63-1.19,9.56,9.56,0,0,0,.26-1.85c0-.72.09-1.55.13-2.47Zm-8-7.2a20.05,20.05,0,0,0-.26-3.63c-.18-.88-.64-1.32-1.39-1.32a1.55,1.55,0,0,0-1.52,1.29,12.21,12.21,0,0,0-.33,3.66Z" transform="translate(351.72 -311.28)"/><path class="cls-1" d="M-96.9,348.24v7.06h-12.34v-7.06a.34.34,0,0,1,.19,0,.53.53,0,0,0,.2,0,1.67,1.67,0,0,0,1.32-.53,1.82,1.82,0,0,0,.46-1.25V332.4a2.26,2.26,0,0,0-.49-1.62,2.57,2.57,0,0,0-1.68-.56v-7.06H-98v2q1.38-2.64,5.28-2.64A7.46,7.46,0,0,1-90,323a8.46,8.46,0,0,1,2.31,1.35,6.44,6.44,0,0,1,1.58,1.92,4.62,4.62,0,0,1,.6,2.27v17.49a2.31,2.31,0,0,0,.46,1.69,2.42,2.42,0,0,0,1.52.49v7.06H-96v-7.06a1.9,1.9,0,0,0,1.12-.56,1.37,1.37,0,0,0,.39-1V334.65c0-.44,0-.81,0-1.09s0-.65,0-1.09c0-1.54-.62-2.31-1.85-2.31-.44,0-.91.38-1.42,1.15a5.58,5.58,0,0,0-.76,3.07V346.2a2.86,2.86,0,0,0,.33,1.55A1.41,1.41,0,0,0-96.9,348.24Z" transform="translate(351.72 -311.28)"/><path class="cls-1" d="M-70.17,330a10.12,10.12,0,0,1,.39,1.12,4.23,4.23,0,0,1,.2,1.19A3.42,3.42,0,0,1-71,335.17a5.09,5.09,0,0,1-3.17,1.13,4.66,4.66,0,0,1-3.56-1.56,5.15,5.15,0,0,1-1.45-3.66,7.8,7.8,0,0,1,.79-3.56,7.8,7.8,0,0,1,2.21-2.71,9.9,9.9,0,0,1,3.33-1.71,14.08,14.08,0,0,1,4.23-.6,12.24,12.24,0,0,1,4.19.7,11.2,11.2,0,0,1,3.4,1.88,8.59,8.59,0,0,1,2.24,2.74,7,7,0,0,1,.79,3.26v16.24a1.42,1.42,0,0,0,.07.43.3.3,0,0,0,.33.23c.22,0,.38-.14.49-.43a2.2,2.2,0,0,0,.17-.76V345.6h2.64v1.78a12,12,0,0,1-1.39,6.34c-.92,1.5-2.62,2.24-5.08,2.24a6.8,6.8,0,0,1-3.37-.66,11.26,11.26,0,0,1-2.24-1.78A20.2,20.2,0,0,1-69,355.24a6.72,6.72,0,0,1-3.24.72,7.14,7.14,0,0,1-5.87-2.57,10.27,10.27,0,0,1-2.12-6.73,10.55,10.55,0,0,1,.83-4.39,7.67,7.67,0,0,1,2.48-3,14.74,14.74,0,0,1,4.09-2,46.32,46.32,0,0,1,5.74-1.49v-3.36a3.61,3.61,0,0,0-.5-2,1.68,1.68,0,0,0-1.48-.73,1.37,1.37,0,0,0-.69.14A1.5,1.5,0,0,0-70.17,330Zm3.1,11.41a5.54,5.54,0,0,0-2.77,1.09,3.48,3.48,0,0,0-1,2.81,11.27,11.27,0,0,0,.23,2.41,1.33,1.33,0,0,0,1.48,1.09,1.87,1.87,0,0,0,1.45-.66,2.76,2.76,0,0,0,.6-1.92Z" transform="translate(351.72 -311.28)"/><path class="cls-1" d="M-46.68,355.3h-4.16V342.76h5.94A28.8,28.8,0,0,0-43.77,347a2.06,2.06,0,0,0,2,1.58,2.23,2.23,0,0,0,1.35-.46,1.61,1.61,0,0,0,.63-1.39c0-.61-.54-1.35-1.62-2.21a39,39,0,0,0-4.65-3,8.75,8.75,0,0,1-3.47-3.86,13.61,13.61,0,0,1-1.29-6.11,10.34,10.34,0,0,1,.63-3.66,8.47,8.47,0,0,1,1.78-2.9,8.76,8.76,0,0,1,2.71-2,8,8,0,0,1,3.4-.73,7.24,7.24,0,0,1,2.08.27,10.27,10.27,0,0,1,1.58.59c.46.22.86.42,1.19.6a1.87,1.87,0,0,0,.76.26.59.59,0,0,0,.56-.3c.11-.19.21-.38.3-.56h4.15v11.55h-5.74a26.27,26.27,0,0,0-1.05-3.56,1.92,1.92,0,0,0-1.92-1.32,1.26,1.26,0,0,0-1,.46,1.52,1.52,0,0,0-.39,1,1.53,1.53,0,0,0,.85,1.32l3.8,2.54a19.78,19.78,0,0,1,3.2,2.67,12,12,0,0,1,2.24,3.34,11,11,0,0,1,.86,4.65A12.5,12.5,0,0,1-31.5,350a9.21,9.21,0,0,1-1.85,3.17,7.86,7.86,0,0,1-2.8,2,8.57,8.57,0,0,1-3.47.7,8.2,8.2,0,0,1-2.21-.27,10.9,10.9,0,0,1-1.68-.59l-1.25-.59a2.12,2.12,0,0,0-.93-.27,1.16,1.16,0,0,0-.69.27A.86.86,0,0,0-46.68,355.3Z" transform="translate(351.72 -311.28)"/><path class="cls-1" d="M-148.25,323.16v6.93a2.74,2.74,0,0,1,.79.36.87.87,0,0,1,.33.76,4.39,4.39,0,0,1-.06.6,2.2,2.2,0,0,1-.14.53l-1.78,8-1.32-8c0-.18-.08-.31-.1-.4a2,2,0,0,1,0-.4,1.44,1.44,0,0,1,1.25-1.45v-6.93h-13v6.93q2,.46,2.64,3.24l5.94,24.15a2.08,2.08,0,0,1,.13.53c0,.05,0,.13,0,.21s-.41,2.72-2.54,2.59-6.64-4.3-12.42-4.13-8.6,4.51-10.64,4.6a20.77,20.77,0,0,1-4.77-.6,7.73,7.73,0,0,0,7.07,3.83c5-.17,10-5.19,12.42-5.28s4.26,2.13,4.26,2.13,3.14,3.49,5.7,3.58a7.43,7.43,0,0,0,4.31-1.22,7,7,0,0,0,.88-.63,8.7,8.7,0,0,0,1.82-2.11,9,9,0,0,0,1.05-2.51l5.94-25.14a9.7,9.7,0,0,1,.73-2.31,2,2,0,0,1,1.71-.93v-6.93Z" transform="translate(351.72 -311.28)"/></svg>