<svg id="Layer_1" data-name="Layer 1" xmlns="http://www.w3.org/2000/svg" viewBox="0 0 492.62 494.36"><defs><style>.cls-1{fill:#fff;}</style></defs><path id="Path_6" data-name="Path 6" class="cls-1" d="M968.49,63.76A140.14,140.14,0,1,1,827.79,203.9,140.15,140.15,0,0,1,968.49,63.76Zm-90.4,303.93h186.25a153,153,0,0,1,152.88,152.88v37.54h-31V520.57a122.34,122.34,0,0,0-122-121.94H878.09a122.34,122.34,0,0,0-122,121.94v37.54H724.6V520.57A153.53,153.53,0,0,1,878.09,367.69Zm90.38-273a109.2,109.2,0,1,0,108.6,109.8c0-.2,0-.4,0-.6A109.12,109.12,0,0,0,968.49,94.7Z" transform="translate(-724.6 -63.76)"/></svg>