<svg id="Layer_1" data-name="Layer 1" xmlns="http://www.w3.org/2000/svg" viewBox="0 0 120.01 119.98"><defs><style>.cls-1{fill:#fff;}</style></defs><path class="cls-1" d="M743.5,384.45a59.93,59.93,0,0,1-60.09,60c-33-.12-60-27.07-59.92-59.8a60,60,0,1,1,120-.2Zm-86.4,19.2a14.09,14.09,0,0,0,1.68,1.3c19,10.1,43.88-2.2,47.54-23.38.8-4.59,2.36-9,3.55-13.48h-2.13c.86-1.57,1.58-2.9,2.82-5.19-4.5,2.59-7.76,2.36-11.31-.11-1.63-1.13-4.51-.91-6.73-.64-7.63,1-8.93,6.83-9.4,13.35-9.85.46-16.7-4.91-23.26-11.19-3,5.74-1.89,10.35,2.31,14.78h-5.61l7.14,10.82c-.13.19-1.2,1.51-1.09,1.61,2.61,2.56,5.35,5,8.83,8.13Z" transform="translate(-623.49 -324.46)"/></svg>